<svg width="31" height="31" viewBox="0 0 31 31" fill="none" xmlns="http://www.w3.org/2000/svg">
<path d="M19.4878 14.7653C19.8579 14.0562 20.0261 13.2795 20.0261 12.5029V12.0301L19.9588 10.5444C19.5887 8.2144 17.5362 6.4585 15.1809 6.4585C12.4891 6.4585 10.302 8.65338 10.302 11.3548V12.5366C10.302 13.4821 10.5712 14.3938 11.0759 15.1705C9.52811 16.4874 8.65328 18.3784 8.61963 20.4044V20.472C8.65328 24.7604 12.4554 24.7604 15.5174 24.7604C18.5793 24.7604 22.3814 24.7604 22.4151 20.472V20.4044C22.4487 18.142 21.3384 16.0822 19.4878 14.7653ZM18.2428 12.5366C18.2428 14.225 16.8633 15.6095 15.1809 15.6095C13.4985 15.6095 12.119 14.225 12.119 12.5366V12.0977L12.2199 10.6457C12.5564 9.26119 13.7677 8.28194 15.2145 8.28194C16.6614 8.28194 17.8727 9.26119 18.2092 10.6457L18.3101 12.0977V12.5366H18.2428ZM12.3208 16.4874C13.162 17.0952 14.1378 17.3991 15.1809 17.3991C16.3585 17.3991 17.5026 16.9602 18.3774 16.1835C19.7906 17.129 20.6318 18.7161 20.6654 20.4044C20.6654 22.5655 19.4541 22.9032 15.551 22.9032C11.6815 22.9032 10.4702 22.5655 10.4366 20.4044C10.4366 18.9187 11.1432 17.4667 12.3208 16.4874Z" fill="black" fill-opacity="0.9"/>
<path d="M24.6687 14.1223C24.9716 13.5483 25.1398 12.8729 25.1398 12.2314V11.8261L25.0725 10.543C24.736 8.58447 22.9527 7.06494 20.9675 7.06494C20.5637 7.06494 20.16 7.13248 19.7898 7.23378L19.4534 7.33508L20.4628 8.78708L20.631 8.75331C21.3376 8.58447 21.9096 8.82085 22.2798 9.02345C22.8518 9.39489 23.2892 10.0027 23.4238 10.6105L23.4911 11.0495C23.5247 11.3196 23.5247 11.6235 23.5247 11.8937V12.1976C23.5247 13.4807 22.6499 14.5275 21.3713 14.7639L20.9002 14.8314L22.1452 16.1821L22.3134 16.1146C22.8181 15.9458 23.2892 15.6756 23.6593 15.338C24.8033 16.1146 25.5436 17.4653 25.5436 18.8498C25.5436 20.0654 25.0725 20.5719 23.7602 20.7745L23.592 20.8083L23.2555 22.4629L23.592 22.4291C25.1061 22.2603 27.125 21.72 27.125 18.8835V18.8498C27.125 16.9588 26.2165 15.2029 24.6687 14.1223Z" fill="black" fill-opacity="0.9"/>
<path d="M7.27339 20.8429C5.96114 20.6403 5.49008 20.1338 5.49008 18.9181C5.49008 17.5337 6.19667 16.183 7.37434 15.4063C7.77811 15.744 8.21552 16.0141 8.72023 16.183L8.88847 16.2505L10.1334 14.8998L9.66236 14.8323C8.38376 14.5959 7.50893 13.5491 7.50893 12.2659V11.962C7.50893 11.6919 7.50893 11.388 7.54257 11.1179L7.57622 10.7126C7.8454 9.59832 8.92212 8.51776 10.0661 8.75414L10.2344 8.7879L11.2438 7.33591L10.9073 7.2346C10.5708 7.1333 10.4699 7.1333 10.1334 7.1333H10.0661C8.04729 7.1333 6.29762 8.61907 5.96114 10.6451L5.89385 11.827V12.1984C5.89385 12.84 6.06208 13.5153 6.36491 14.0894C4.81713 15.2037 3.875 16.9596 3.875 18.8844V18.9181C3.90865 21.7546 5.89385 22.2949 7.40798 22.4637L7.74446 22.4975L7.40798 20.8429H7.27339Z" fill="black" fill-opacity="0.9"/>
</svg>
