<svg width="31" height="31" viewBox="0 0 31 31" fill="none" xmlns="http://www.w3.org/2000/svg">
<path d="M24.5445 15.4766V14.2707L26.0578 12.9467C26.3367 12.7008 26.5197 12.3643 26.5745 11.9965C26.6294 11.6287 26.5524 11.2534 26.3572 10.9369L24.4973 7.78441C24.3591 7.54503 24.1603 7.3462 23.921 7.20786C23.6817 7.06953 23.4102 6.99656 23.1338 6.99628C22.9625 6.99497 22.7921 7.02159 22.6294 7.07509L20.7142 7.72136C20.384 7.50092 20.0391 7.30342 19.6818 7.13026L19.2798 5.14418C19.2078 4.78133 19.0104 4.45538 18.7222 4.22341C18.434 3.99143 18.0735 3.8682 17.7036 3.87529H14.0151C13.6453 3.8682 13.2847 3.99143 12.9965 4.22341C12.7084 4.45538 12.511 4.78133 12.4389 5.14418L12.0369 7.13026C11.6775 7.30417 11.33 7.50163 10.9966 7.72136L9.12086 7.04357C8.95638 7.00071 8.78604 6.98474 8.61646 6.99628C8.34004 6.99656 8.06856 7.06953 7.82925 7.20786C7.58993 7.3462 7.3912 7.54503 7.253 7.78441L5.39301 10.9369C5.20905 11.253 5.14069 11.6231 5.19964 11.984C5.25859 12.3449 5.44118 12.6741 5.71614 12.9151L7.20571 14.2786V15.4844L5.71614 16.8085C5.43342 17.0512 5.24583 17.3863 5.18668 17.7542C5.12752 18.1221 5.20063 18.4991 5.39301 18.8182L7.253 21.9707C7.3912 22.2101 7.58993 22.409 7.82925 22.5473C8.06856 22.6856 8.34004 22.7586 8.61646 22.7589C8.78776 22.7602 8.95813 22.7336 9.12086 22.6801L11.036 22.0338C11.3662 22.2542 11.7112 22.4517 12.0685 22.6249L12.4704 24.611C12.5425 24.9738 12.7399 25.2998 13.028 25.5317C13.3162 25.7637 13.6768 25.8869 14.0467 25.8799H17.7666C18.1365 25.8869 18.4971 25.7637 18.7853 25.5317C19.0734 25.2998 19.2708 24.9738 19.3429 24.611L19.7448 22.6249C20.1043 22.451 20.4518 22.2535 20.7852 22.0338L22.6924 22.6801C22.8552 22.7336 23.0255 22.7602 23.1968 22.7589C23.4733 22.7586 23.7447 22.6856 23.9841 22.5473C24.2234 22.409 24.4221 22.2101 24.5603 21.9707L26.3572 18.8182C26.5412 18.5022 26.6096 18.132 26.5506 17.7711C26.4917 17.4102 26.3091 17.0811 26.0341 16.84L24.5445 15.4766ZM23.1338 21.1826L20.4305 20.2684C19.7973 20.8038 19.0742 21.2228 18.2947 21.5057L17.7351 24.3351H14.0151L13.4556 21.5373C12.6822 21.2464 11.963 20.8281 11.3276 20.2999L8.61646 21.1826L6.75647 18.0301L8.90019 16.1386C8.75446 15.3228 8.75446 14.4876 8.90019 13.6717L6.75647 11.7251L8.61646 8.57254L11.3197 9.48677C11.9529 8.95131 12.6761 8.53237 13.4556 8.24941L14.0151 5.42002H17.7351L18.2947 8.21788C19.068 8.50879 19.7873 8.92701 20.4226 9.45524L23.1338 8.57254L24.9938 11.7251L22.8501 13.6166C22.9958 14.4324 22.9958 15.2676 22.8501 16.0834L24.9938 18.0301L23.1338 21.1826Z" fill="black"/>
<path d="M15.8751 19.6065C14.9399 19.6065 14.0256 19.3291 13.248 18.8095C12.4703 18.2899 11.8642 17.5514 11.5063 16.6873C11.1484 15.8233 11.0548 14.8725 11.2372 13.9552C11.4197 13.0379 11.8701 12.1953 12.5314 11.534C13.1927 10.8726 14.0353 10.4223 14.9526 10.2398C15.8699 10.0573 16.8207 10.151 17.6848 10.5089C18.5488 10.8668 19.2874 11.4729 19.807 12.2505C20.3266 13.0282 20.6039 13.9424 20.6039 14.8777C20.6102 15.5005 20.4922 16.1182 20.2568 16.6948C20.0214 17.2714 19.6734 17.7952 19.233 18.2355C18.7926 18.6759 18.2688 19.024 17.6922 19.2594C17.1156 19.4948 16.4979 19.6128 15.8751 19.6065ZM15.8751 11.7252C15.4585 11.7155 15.0442 11.7904 14.6573 11.9454C14.2705 12.1004 13.9191 12.3322 13.6244 12.6269C13.3297 12.9216 13.0978 13.273 12.9428 13.6599C12.7878 14.0468 12.7129 14.4611 12.7226 14.8777C12.7129 15.2944 12.7878 15.7086 12.9428 16.0955C13.0978 16.4824 13.3297 16.8338 13.6244 17.1285C13.9191 17.4232 14.2705 17.655 14.6573 17.81C15.0442 17.965 15.4585 18.0399 15.8751 18.0302C16.2918 18.0399 16.7061 17.965 17.0929 17.81C17.4798 17.655 17.8312 17.4232 18.1259 17.1285C18.4206 16.8338 18.6525 16.4824 18.8075 16.0955C18.9625 15.7086 19.0374 15.2944 19.0277 14.8777C19.0374 14.4611 18.9625 14.0468 18.8075 13.6599C18.6525 13.273 18.4206 12.9216 18.1259 12.6269C17.8312 12.3322 17.4798 12.1004 17.0929 11.9454C16.7061 11.7904 16.2918 11.7155 15.8751 11.7252Z" fill="black"/>
</svg>
