<svg width="31" height="31" viewBox="0 0 31 31" fill="none" xmlns="http://www.w3.org/2000/svg">
<path d="M25.824 15.5447C25.6821 15.8476 25.4738 16.0701 25.1142 16.0843C24.6504 16.1032 24.3002 15.7766 24.3002 15.3081C24.2954 13.931 24.3002 12.5491 24.3002 11.1719C24.3002 10.6513 24.1535 10.1923 23.7323 9.85152C23.4388 9.61489 23.0981 9.52971 22.7337 9.51551C22.4876 9.50605 22.2415 9.51551 21.9954 9.51078C21.8724 9.50605 21.8298 9.5581 21.8298 9.67642C21.8345 9.86572 21.8345 10.055 21.8298 10.2443C21.8251 10.6939 21.4985 11.0252 21.0584 11.0205C20.6277 11.0205 20.3012 10.6939 20.2964 10.2491C20.2917 10.055 20.2917 9.85625 20.2964 9.66222C20.3012 9.54864 20.2586 9.50605 20.1403 9.50605C19.1086 9.51078 18.0769 9.51078 17.0405 9.50605C16.9127 9.50605 16.8748 9.5581 16.8796 9.67642C16.8843 9.87991 16.8843 10.0787 16.8796 10.2822C16.8701 10.7034 16.5294 11.0252 16.1034 11.0205C15.6917 11.0205 15.3557 10.6986 15.3415 10.2869C15.3368 10.0787 15.3368 9.87045 15.3415 9.66222C15.3462 9.54864 15.2989 9.50605 15.1853 9.50605C14.1631 9.51078 13.1456 9.51078 12.1234 9.50605C11.9956 9.50605 11.9577 9.5581 11.9625 9.67642C11.9672 9.87991 11.9672 10.0787 11.9625 10.2822C11.953 10.7034 11.6123 11.0205 11.1863 11.0205C10.7746 11.0157 10.4386 10.6986 10.4291 10.2869C10.4244 10.0834 10.4244 9.88465 10.4291 9.68115C10.4339 9.56757 10.4007 9.50605 10.273 9.51078C9.92749 9.52024 9.58202 9.50131 9.23654 9.54864C8.64498 9.62909 8.09601 10.2017 8.02975 10.7933C8.00609 11.0205 7.99662 11.2429 7.99662 11.47C7.99662 15.1851 7.99662 18.9001 7.99662 22.6151C7.99662 23.1404 8.1386 23.609 8.56453 23.9544C8.88634 24.2147 9.26021 24.2952 9.65774 24.2952C11.5224 24.2999 13.387 24.2952 15.2516 24.2952C15.7532 24.2952 16.0987 24.6738 16.0419 25.166C16.0041 25.4925 15.7864 25.6865 15.5071 25.819C13.368 25.819 11.2242 25.819 9.0851 25.819C9.06617 25.8143 9.05198 25.8001 9.03305 25.8001C7.58016 25.5872 6.44909 24.2715 6.45856 22.724C6.48222 18.8433 6.46802 14.9674 6.46802 11.0867C6.46802 10.8927 6.47749 10.6986 6.50588 10.5046C6.68572 9.27415 7.76946 8.19041 8.99519 8.01057C9.39272 7.95378 9.78552 7.98217 10.183 7.97271C10.4386 7.96798 10.4386 7.97271 10.4386 7.70769C10.4386 7.54205 10.4386 7.38114 10.4386 7.21551C10.4481 6.78011 10.7793 6.4583 11.2147 6.4583C11.6359 6.4583 11.9672 6.78485 11.9767 7.21077C11.9814 7.41427 11.9814 7.61304 11.9767 7.81654C11.9719 7.93012 12.0193 7.97271 12.1328 7.97271C13.1551 7.96798 14.1726 7.96798 15.1948 7.97271C15.3226 7.97271 15.3604 7.92065 15.3557 7.80234C15.351 7.60831 15.351 7.41427 15.3557 7.21551C15.3652 6.78958 15.6917 6.46304 16.1129 6.4583C16.5483 6.45357 16.8843 6.78011 16.889 7.21077C16.8938 7.40481 16.8938 7.60357 16.889 7.79761C16.8843 7.91119 16.9174 7.97271 17.0452 7.97271C18.0769 7.96798 19.1086 7.96798 20.145 7.97271C20.2728 7.97271 20.3059 7.91592 20.3059 7.80234C20.3012 7.59884 20.3012 7.40007 20.3059 7.19658C20.3154 6.78485 20.6514 6.46304 21.0631 6.46304C21.489 6.4583 21.8298 6.78011 21.8392 7.20131C21.844 7.39534 21.8487 7.59411 21.8392 7.78814C21.8298 7.94431 21.8913 7.98217 22.038 7.97744C22.3125 7.96798 22.5917 7.97271 22.8709 7.97744C23.6281 7.98691 24.286 8.25666 24.8444 8.75358C25.3981 9.24576 25.7057 9.87045 25.8335 10.5945C25.824 12.2462 25.824 13.8931 25.824 15.5447Z" fill="#5A78F6"/>
<path d="M20.7231 25.824C20.1741 25.7293 19.6393 25.5968 19.1472 25.3271C17.7653 24.5746 16.9181 23.4293 16.7146 21.8723C16.3928 19.4493 17.9167 17.3007 20.2972 16.7612C22.6303 16.2312 25.1007 17.7408 25.6828 20.0598C25.7396 20.2775 25.7774 20.4999 25.8247 20.7223C25.8247 21.0773 25.8247 21.4275 25.8247 21.7824C25.8153 21.8297 25.8011 21.8818 25.7916 21.9291C25.5171 23.5003 24.6747 24.6503 23.255 25.3791C22.7912 25.6157 22.2895 25.7341 21.7784 25.824C21.4282 25.824 21.078 25.824 20.7231 25.824ZM24.2961 21.2571C24.263 19.5581 22.9616 18.2188 21.2531 18.2188C19.5778 18.2188 18.229 19.5203 18.2196 21.2429C18.2054 22.904 19.5021 24.2812 21.2484 24.2906C22.9237 24.2954 24.2583 22.9845 24.2961 21.2571Z" fill="#5A78F6"/>
<path d="M11.9717 14.4185C11.9717 14.8444 11.631 15.1804 11.2003 15.1804C10.7649 15.1804 10.4289 14.8397 10.4336 14.3948C10.4384 13.9689 10.7791 13.6423 11.2145 13.6423C11.6404 13.6471 11.9717 13.9878 11.9717 14.4185Z" fill="#5A78F6"/>
<path d="M15.2557 14.4183C15.251 14.8442 14.915 15.1803 14.4843 15.1755C14.0489 15.1755 13.7129 14.83 13.7224 14.3899C13.7271 13.964 14.0678 13.6375 14.5032 13.6375C14.9292 13.6469 15.2604 13.9877 15.2557 14.4183Z" fill="#5A78F6"/>
<path d="M18.5464 14.4233C18.5417 14.8492 18.2057 15.1805 17.7703 15.1805C17.3349 15.1805 17.0036 14.835 17.0084 14.3901C17.0131 13.9642 17.3586 13.6377 17.7939 13.6424C18.2199 13.6471 18.5512 13.9879 18.5464 14.4233Z" fill="#5A78F6"/>
<path d="M21.834 14.4233C21.8293 14.8492 21.4885 15.1805 21.0579 15.1805C20.6225 15.1757 20.2912 14.835 20.2959 14.3901C20.3007 13.9642 20.6462 13.6377 21.0815 13.6424C21.5075 13.6471 21.834 13.9926 21.834 14.4233Z" fill="#5A78F6"/>
<path d="M11.1955 18.4695C10.7649 18.4695 10.4336 18.1288 10.4336 17.6981C10.4336 17.2627 10.7743 16.9267 11.2192 16.9314C11.6451 16.9362 11.9717 17.2769 11.9717 17.7123C11.9669 18.1382 11.6262 18.4695 11.1955 18.4695Z" fill="#5A78F6"/>
<path d="M15.2559 17.7076C15.2559 18.1382 14.9152 18.4695 14.4845 18.4695C14.0491 18.4695 13.7131 18.1288 13.7178 17.6839C13.7226 17.258 14.0633 16.9267 14.4987 16.9314C14.9293 16.9362 15.2606 17.2722 15.2559 17.7076Z" fill="#5A78F6"/>
<path d="M10.4336 20.973C10.4384 20.5471 10.7791 20.2158 11.2098 20.2205C11.6452 20.2252 11.9764 20.5707 11.967 21.0108C11.9575 21.4368 11.6168 21.7586 11.1814 21.7538C10.7555 21.7491 10.4289 21.4036 10.4336 20.973Z" fill="#5A78F6"/>
<path d="M13.7222 20.973C13.727 20.5471 14.0677 20.2158 14.4984 20.2205C14.9337 20.2252 15.265 20.5707 15.2556 21.0108C15.2461 21.4368 14.9053 21.7586 14.47 21.7538C14.044 21.7491 13.7175 21.4084 13.7222 20.973Z" fill="#5A78F6"/>
<path d="M20.485 20.4717C20.485 20.2066 20.4803 19.9416 20.485 19.6813C20.4945 19.2601 20.8258 18.9336 21.2517 18.9336C21.6729 18.9336 22.0089 19.2554 22.0231 19.6766C22.0278 19.8754 22.0325 20.0789 22.0231 20.2824C22.0136 20.4338 22.0657 20.5001 22.2266 20.4906C22.397 20.4764 22.5626 20.4906 22.7188 20.5758C23.0264 20.7461 23.1873 21.1058 23.1021 21.4418C23.0169 21.7778 22.7235 22.0192 22.378 22.0239C21.9947 22.0287 21.6114 22.0287 21.228 22.0239C20.821 22.0192 20.4992 21.6927 20.4897 21.2904C20.4803 21.0159 20.485 20.7414 20.485 20.4717Z" fill="#5A78F6"/>
</svg>
