<svg width="31" height="31" viewBox="0 0 31 31" fill="none" xmlns="http://www.w3.org/2000/svg">
<path d="M22.9921 6.4585H8.00798C6.44132 6.4585 5.16669 7.73288 5.16669 9.29978V18.4697C5.16669 20.0331 6.43577 21.3055 7.99788 21.311V25.4722L13.978 21.311H22.9921C24.5587 21.311 25.8334 20.0364 25.8334 18.4697V9.29978C25.8334 7.73288 24.5587 6.4585 22.9921 6.4585ZM24.6224 18.4697C24.6224 19.3686 23.8911 20.1001 22.9921 20.1001H13.5981L9.20882 23.1544V20.1001H8.00798C7.10898 20.1001 6.37762 19.3686 6.37762 18.4697V9.29978C6.37762 8.40066 7.10898 7.66943 8.00798 7.66943H22.9921C23.8911 7.66943 24.6224 8.40066 24.6224 9.29978V18.4697Z" fill="black"/>
<path d="M10.6979 10.7397H20.3019V11.9507H10.6979V10.7397Z" fill="black"/>
<path d="M10.6979 13.3237H20.3019V14.5347H10.6979V13.3237Z" fill="black"/>
<path d="M10.6979 15.9048H20.3019V17.1157H10.6979V15.9048Z" fill="black"/>
</svg>
