<svg width="31" height="31" viewBox="0 0 31 31" fill="none" xmlns="http://www.w3.org/2000/svg">
<path fill-rule="evenodd" clip-rule="evenodd" d="M15.5 5.1665C11.6033 5.1665 9.65445 5.1665 8.44442 6.37757C7.34495 7.476 7.24369 9.18204 7.23335 12.3998H6.20002C5.92596 12.3998 5.66313 12.5087 5.46934 12.7025C5.27556 12.8963 5.16669 13.1591 5.16669 13.4332V14.4665C5.16669 14.6269 5.20404 14.7851 5.27578 14.9286C5.34752 15.0721 5.45168 15.1969 5.58002 15.2932L7.23335 16.5332C7.24369 19.751 7.34495 21.457 8.44442 22.5554C8.69449 22.8065 8.97555 23.0049 9.30002 23.162V24.7998C9.30002 25.0739 9.40889 25.3367 9.60268 25.5305C9.79646 25.7243 10.0593 25.8332 10.3334 25.8332H11.8834C12.1574 25.8332 12.4202 25.7243 12.614 25.5305C12.8078 25.3367 12.9167 25.0739 12.9167 24.7998V23.7479C13.6679 23.7665 14.5225 23.7665 15.5 23.7665C16.4776 23.7665 17.3321 23.7665 18.0834 23.7479V24.7998C18.0834 25.0739 18.1922 25.3367 18.386 25.5305C18.5798 25.7243 18.8426 25.8332 19.1167 25.8332H20.6667C20.9407 25.8332 21.2036 25.7243 21.3974 25.5305C21.5912 25.3367 21.7 25.0739 21.7 24.7998V23.162C22.0174 23.0095 22.3067 22.8044 22.5556 22.5554C23.6551 21.457 23.7574 19.751 23.7667 16.5332L25.42 15.2932C25.5484 15.1969 25.6525 15.0721 25.7243 14.9286C25.796 14.7851 25.8334 14.6269 25.8334 14.4665V13.4332C25.8334 13.1591 25.7245 12.8963 25.5307 12.7025C25.3369 12.5087 25.0741 12.3998 24.8 12.3998H23.7667C23.7564 9.18204 23.6551 7.476 22.5556 6.37757C21.3456 5.1665 19.3967 5.1665 15.5 5.1665ZM8.78335 12.9165C8.78335 14.3776 8.78335 15.1082 9.23802 15.5618C9.69165 16.0165 10.4222 16.0165 11.8834 16.0165H19.1167C20.5778 16.0165 21.3084 16.0165 21.762 15.5618C22.2167 15.1082 22.2167 14.3776 22.2167 12.9165V10.3332C22.2167 8.87204 22.2167 8.14147 21.762 7.68784C21.3094 7.23317 20.5789 7.23317 19.1167 7.23317H11.8834C10.4222 7.23317 9.69165 7.23317 9.23802 7.68784C8.78335 8.14044 8.78335 8.871 8.78335 10.3332V12.9165ZM9.55835 19.6332C9.55835 19.4276 9.64001 19.2305 9.78535 19.0852C9.93069 18.9398 10.1278 18.8582 10.3334 18.8582H11.8834C12.0889 18.8582 12.286 18.9398 12.4314 19.0852C12.5767 19.2305 12.6584 19.4276 12.6584 19.6332C12.6584 19.8387 12.5767 20.0358 12.4314 20.1812C12.286 20.3265 12.0889 20.4082 11.8834 20.4082H10.3334C10.1278 20.4082 9.93069 20.3265 9.78535 20.1812C9.64001 20.0358 9.55835 19.8387 9.55835 19.6332ZM21.4417 19.6332C21.4417 19.4276 21.36 19.2305 21.2147 19.0852C21.0694 18.9398 20.8722 18.8582 20.6667 18.8582H19.1167C18.9111 18.8582 18.714 18.9398 18.5687 19.0852C18.4233 19.2305 18.3417 19.4276 18.3417 19.6332C18.3417 19.8387 18.4233 20.0358 18.5687 20.1812C18.714 20.3265 18.9111 20.4082 19.1167 20.4082H20.6667C20.8722 20.4082 21.0694 20.3265 21.2147 20.1812C21.36 20.0358 21.4417 19.8387 21.4417 19.6332Z" fill="black"/>
</svg>
