<svg width="31" height="31" viewBox="0 0 31 31" fill="none" xmlns="http://www.w3.org/2000/svg">
<path d="M25.2999 15.1204L17.1624 6.98291C16.8369 6.65741 16.3848 6.4585 15.8875 6.4585H9.55833C8.56375 6.4585 7.75 7.27225 7.75 8.26683V14.596C7.75 15.0933 7.94892 15.5454 8.28346 15.8799L16.421 24.0174C16.7465 24.3429 17.1985 24.5418 17.6958 24.5418C18.1931 24.5418 18.6452 24.3429 18.9707 24.0084L25.2999 17.6792C25.6344 17.3537 25.8333 16.9016 25.8333 16.4043C25.8333 15.907 25.6254 15.4459 25.2999 15.1204ZM17.6958 22.7425L9.55833 14.596V8.26683H15.8875V8.25779L24.025 16.3953L17.6958 22.7425Z" fill="black"/>
<path d="M11.8187 11.8834C12.5677 11.8834 13.175 11.2762 13.175 10.5271C13.175 9.77811 12.5677 9.1709 11.8187 9.1709C11.0697 9.1709 10.4625 9.77811 10.4625 10.5271C10.4625 11.2762 11.0697 11.8834 11.8187 11.8834Z" fill="black"/>
</svg>
