<svg width="31" height="31" viewBox="0 0 31 31" fill="none" xmlns="http://www.w3.org/2000/svg">
<path d="M3.87506 19.5871C3.97744 19.3185 4.18015 19.1695 4.44672 19.0794C5.6219 18.6827 6.79465 18.2789 7.96897 17.8796C8.48009 17.7058 8.7862 17.8409 9.0009 18.3436C9.05375 18.4674 9.106 18.4926 9.21861 18.4212C9.31633 18.3592 9.39365 18.286 9.45656 18.1858C10.5536 16.4383 12.137 15.5844 14.1968 15.6797C15.3017 15.7308 16.284 16.1544 17.1291 16.8729C17.2668 16.9899 17.4034 17.0377 17.58 17.035C18.0944 17.0274 18.609 17.0295 19.1235 17.0332C19.8697 17.0386 20.4748 17.3353 20.91 17.9431C21.0255 18.1044 21.1029 18.123 21.2679 18.0105C22.068 17.4649 22.8707 16.9227 23.6838 16.3968C24.8166 15.6642 26.2914 16.0696 26.9051 17.2665C27.0025 17.4566 27.0516 17.6631 27.1242 17.8616C27.1242 18.134 27.1242 18.4065 27.1242 18.6789C26.9713 19.3649 26.5704 19.8642 25.9991 20.2633C24.6231 21.2242 23.2525 22.1934 21.8958 23.1813C20.541 24.1678 19.0371 24.7067 17.3649 24.762C15.5598 24.8216 13.7541 24.8643 11.9487 24.9159C11.7903 24.9204 11.6323 24.9403 11.4738 24.9442C11.3422 24.9475 11.2868 25.0001 11.2872 25.1373C11.2885 25.5128 11.0829 25.7381 10.7397 25.8553C10.468 25.9482 10.1966 26.0421 9.92511 26.1356C8.96796 26.4653 8.01081 26.7951 7.0536 27.1249C6.90223 27.1249 6.75087 27.1249 6.59951 27.1249C6.33856 26.9975 6.19477 26.7848 6.10298 26.5113C5.63183 25.1077 5.15734 23.705 4.66941 22.3071C4.40567 21.5514 4.17912 20.7826 3.875 20.0412C3.87506 19.8898 3.87506 19.7385 3.87506 19.5871ZM17.233 19.9393C17.233 19.9389 17.233 19.9386 17.233 19.9382C17.8534 19.9382 18.4739 19.9407 19.0943 19.9374C19.5769 19.9349 19.8942 19.6393 19.8955 19.2C19.8969 18.7545 19.5886 18.4606 19.1061 18.4578C18.4554 18.4541 17.8048 18.4551 17.1541 18.4571C16.8831 18.4579 16.6533 18.3731 16.4624 18.1743C14.8134 16.4563 11.7825 16.7731 10.6033 19.0328C10.4988 19.2331 10.3571 19.3921 10.1571 19.5016C10.0179 19.5778 9.89151 19.6795 9.74832 19.7458C9.55288 19.8364 9.54586 19.9544 9.61234 20.1432C9.97149 21.1631 10.3249 22.1853 10.6616 23.2129C10.7405 23.454 10.8459 23.5429 11.1074 23.5336C13.1402 23.4618 15.1732 23.395 17.2066 23.3475C18.5216 23.3167 19.7303 22.9666 20.8075 22.2116C22.3253 21.1478 23.8322 20.0685 25.3409 18.992C25.7644 18.6899 25.8554 18.201 25.5779 17.7987C25.3162 17.4195 24.8114 17.3383 24.3908 17.6178C23.3951 18.2791 22.403 18.9458 21.408 19.6081C21.3091 19.6739 21.2457 19.7537 21.2046 19.8675C20.8696 20.7958 20.1079 21.3494 19.1152 21.3592C17.8897 21.3713 16.6639 21.3621 15.4382 21.3624C15.3083 21.3625 15.1809 21.3441 15.06 21.2978C14.7439 21.1766 14.5698 20.8548 14.6288 20.5085C14.6839 20.185 14.9656 19.9456 15.3264 19.9414C15.9619 19.9339 16.5975 19.9393 17.233 19.9393ZM9.65732 24.6372C9.64673 24.6009 9.63752 24.5642 9.62529 24.5284C9.06314 22.8837 8.49928 21.2395 7.94064 19.5936C7.88851 19.44 7.81295 19.421 7.67121 19.4705C7.00068 19.705 6.32876 19.9359 5.65441 20.1593C5.49112 20.2134 5.4646 20.2926 5.52212 20.4455C5.63649 20.7496 5.73711 21.0588 5.84228 21.3662C6.29231 22.682 6.74179 23.9979 7.19182 25.3137C7.23027 25.426 7.24237 25.5567 7.42982 25.4912C8.12887 25.2466 8.83137 25.012 9.53211 24.7721C9.5952 24.7506 9.66767 24.7306 9.65732 24.6372Z" fill="black"/>
<path d="M19.6321 3.875C20.1903 3.97684 20.7457 4.09169 21.2622 4.33732C23.2642 5.28963 24.4364 6.85398 24.6866 9.06646C25.0205 12.0199 22.8985 14.9678 19.6179 15.3629C16.5727 15.7295 13.7643 13.6228 13.2578 10.6116C12.7089 7.34784 14.8912 4.38454 18.1838 3.90176C18.2132 3.89746 18.2412 3.88408 18.2699 3.875C18.7239 3.875 19.178 3.875 19.6321 3.875ZM14.5923 9.61276C14.5866 12.0193 16.5228 13.9813 18.9102 13.9883C21.3338 13.9955 23.2758 12.0648 23.3069 9.66089C23.3352 7.48298 21.629 5.27473 18.9579 5.26505C16.3008 5.25542 14.5405 7.46245 14.5923 9.61276Z" fill="black"/>
<path d="M20.8255 10.9548C20.7848 11.6112 20.4957 12.1182 19.883 12.4114C19.7457 12.4772 19.6559 12.5447 19.6145 12.7082C19.5327 13.0318 19.2292 13.2448 18.9275 13.2321C18.6093 13.2187 18.3361 13.0037 18.266 12.6758C18.2348 12.5299 18.1459 12.485 18.0343 12.4301C17.4406 12.1386 17.1077 11.6644 17.0804 10.9991C17.0646 10.6126 17.3295 10.3074 17.683 10.2659C18.071 10.2203 18.3846 10.4525 18.4744 10.8504C18.5021 10.9734 18.5003 11.1358 18.6628 11.1519C18.8837 11.1737 19.1208 11.236 19.3227 11.0921C19.4483 11.0026 19.4105 10.8466 19.2413 10.7201C18.7503 10.3532 18.258 9.98801 17.764 9.62505C17.4876 9.42192 17.285 9.16406 17.1703 8.84093C16.8864 8.0412 17.2455 7.18988 18.0218 6.82589C18.1412 6.76988 18.2366 6.72393 18.2674 6.56657C18.3286 6.25446 18.6098 6.0365 18.9144 6.02494C19.2335 6.01283 19.5271 6.21063 19.613 6.53073C19.655 6.68688 19.7305 6.76419 19.8742 6.83121C20.4532 7.10112 20.7526 7.57809 20.8155 8.20316C20.856 8.60493 20.5895 8.93163 20.1949 8.99532C19.8479 9.05133 19.4784 8.8011 19.423 8.41833C19.3834 8.14485 19.2517 8.07462 19.0126 8.09666C18.96 8.1015 18.9066 8.09496 18.8538 8.09793C18.7289 8.10507 18.5799 8.0699 18.5208 8.22641C18.4585 8.39151 18.5826 8.47379 18.6943 8.55607C18.8222 8.65034 18.9493 8.74576 19.0771 8.84033C19.4298 9.10152 19.7841 9.36059 20.135 9.6242C20.5745 9.95429 20.7963 10.3996 20.8255 10.9548Z" fill="black"/>
</svg>
