<svg width="31" height="31" viewBox="0 0 31 31" fill="none" xmlns="http://www.w3.org/2000/svg">
<path fill-rule="evenodd" clip-rule="evenodd" d="M14.5521 7.21779C14.7756 7.21779 14.9568 7.39897 14.9568 7.62248V15.3116C14.9568 15.5351 14.7756 15.7163 14.5521 15.7163H6.863C6.63949 15.7163 6.45831 15.5351 6.45831 15.3116V7.62248C6.45831 7.39897 6.63949 7.21779 6.863 7.21779H14.5521ZM13.2369 8.93772H8.17824V13.9963H13.2369V8.93772ZM25.7148 11.1556C25.8728 11.3136 25.8728 11.5698 25.7148 11.7279L21.1362 16.3064C20.9782 16.4645 20.722 16.4645 20.5639 16.3064L15.9854 11.7279C15.8274 11.5698 15.8274 11.3136 15.9854 11.1556L20.5639 6.57702C20.722 6.41899 20.9782 6.41899 21.1363 6.57702L25.7148 11.1556ZM23.5686 11.4417L20.8501 8.72324L18.1316 11.4417L20.8501 14.1602L23.5686 11.4417ZM14.5521 17.335C14.7756 17.335 14.9568 17.5162 14.9568 17.7397V25.4288C14.9568 25.6523 14.7756 25.8335 14.5521 25.8335H6.863C6.63949 25.8335 6.45831 25.6523 6.45831 25.4288V17.7397C6.45831 17.5162 6.63949 17.335 6.863 17.335H14.5521ZM13.2369 19.055H8.17824V24.1136H13.2369V19.055ZM24.6693 17.335C24.8929 17.335 25.074 17.5162 25.074 17.7397V25.4288C25.074 25.6523 24.8929 25.8335 24.6693 25.8335H16.9802C16.7567 25.8335 16.5756 25.6523 16.5756 25.4288V17.7397C16.5756 17.5162 16.7567 17.335 16.9802 17.335H24.6693ZM23.3541 19.055H18.2955V24.1136H23.3541V19.055Z" fill="black"/>
</svg>
