<svg width="31" height="31" viewBox="0 0 31 31" fill="none" xmlns="http://www.w3.org/2000/svg">
<path d="M3.87506 23.7201C4.21088 22.734 4.80671 22.2556 5.70706 22.2514C6.10064 22.2496 6.49423 22.2511 6.95727 22.2511C6.01309 22.0455 5.29639 21.5996 4.78746 20.8503C4.27319 20.0932 4.10849 19.2552 4.2787 18.3605C4.56741 16.8427 5.9538 15.5985 7.7881 15.7106C9.28246 15.802 10.6423 17.1097 10.7851 18.6435C10.953 20.4482 9.74907 21.9165 8.12846 22.2513C8.53483 22.2513 8.94125 22.2486 9.34762 22.2518C10.3525 22.2596 11.1469 23.0523 11.1564 24.0554C11.1588 24.3126 11.1615 24.5702 11.1553 24.8273C11.1452 25.2493 10.8309 25.5524 10.4128 25.5517C10.0012 25.5509 9.68319 25.2394 9.67344 24.8218C9.6683 24.6024 9.67702 24.3827 9.66975 24.1634C9.66043 23.8824 9.52618 23.7402 9.24631 23.739C8.08832 23.7341 6.93026 23.7342 5.77227 23.7389C5.49095 23.7401 5.35652 23.8808 5.34659 24.1609C5.33933 24.365 5.34593 24.5696 5.34375 24.7739C5.33969 25.1631 5.12885 25.4505 4.78812 25.5345C4.446 25.6188 4.1189 25.4683 3.92714 25.1379C3.90818 25.1052 3.89232 25.0707 3.875 25.0371C3.87506 24.5981 3.87506 24.1591 3.87506 23.7201ZM5.71002 18.9875C5.7145 19.9663 6.54146 20.8021 7.49806 20.7949C8.48814 20.7873 9.32085 19.9521 9.3048 18.9826C9.28858 18.0029 8.46919 17.1957 7.49412 17.1989C6.53989 17.202 5.70566 18.0384 5.71002 18.9875Z" fill="black"/>
<path d="M27.1249 25.0358C26.9726 25.3679 26.7335 25.5684 26.3486 25.5498C25.9834 25.5322 25.6744 25.2308 25.6589 24.8634C25.6491 24.6291 25.6611 24.394 25.6532 24.1596C25.6438 23.8796 25.5085 23.7387 25.2274 23.7376C24.0694 23.7329 22.9114 23.7328 21.7534 23.7378C21.4732 23.739 21.3392 23.881 21.3301 24.1621C21.3228 24.3889 21.3331 24.6163 21.3255 24.8431C21.3117 25.2509 20.9974 25.5491 20.589 25.5503C20.1862 25.5515 19.8498 25.2471 19.8477 24.8487C19.8455 24.4566 19.7975 24.0606 19.8858 23.6721C20.0767 22.833 20.7949 22.2567 21.6524 22.2504C22.0611 22.2474 22.4698 22.2499 22.9454 22.2499C22.0308 22.0543 21.3297 21.6294 20.8186 20.9179C20.3048 20.2025 20.1131 19.3987 20.2332 18.5309C20.4637 16.8657 21.9392 15.6204 23.7109 15.7053C25.2154 15.7773 26.5818 17.0284 26.7618 18.6045C26.9601 20.3405 25.833 21.8829 24.0487 22.2496C24.4876 22.2496 24.8676 22.2489 25.2477 22.2498C26.1594 22.252 26.8124 22.7358 27.0878 23.6119C27.0992 23.6478 27.1125 23.6832 27.125 23.7188C27.1249 24.1578 27.1249 24.5968 27.1249 25.0358ZM25.2884 18.9911C25.2865 18.0205 24.4704 17.2077 23.4875 17.1976C22.5409 17.1879 21.7021 18.0196 21.6935 18.9763C21.6849 19.9463 22.5081 20.7876 23.4718 20.7937C24.4521 20.7999 25.2902 19.9682 25.2884 18.9911Z" fill="black"/>
<path d="M12.1218 11.715C12.5457 11.715 12.9695 11.7104 13.3933 11.7159C14.3393 11.7283 15.1399 12.5286 15.1548 13.4739C15.1591 13.7463 15.1608 14.019 15.1544 14.2912C15.1446 14.7129 14.8297 15.0158 14.4114 15.0149C13.9999 15.0139 13.6823 14.7024 13.6726 14.2846C13.6675 14.0652 13.6762 13.8455 13.6689 13.6263C13.6595 13.3454 13.5252 13.2034 13.2452 13.2022C12.0873 13.1973 10.9294 13.1974 9.77153 13.2021C9.49014 13.2033 9.35505 13.3439 9.34579 13.6239C9.33773 13.8658 9.35196 14.1087 9.33822 14.3502C9.31775 14.7107 9.01415 14.9968 8.65283 15.0142C8.27457 15.0324 7.90762 14.7833 7.87716 14.4286C7.8398 13.9936 7.80801 13.5501 7.90647 13.1179C8.09418 12.2935 8.81826 11.7215 9.66441 11.715C10.0731 11.7119 10.4817 11.7145 10.9578 11.7145C10.0129 11.5096 9.2945 11.0627 8.7849 10.3109C8.27644 9.56077 8.11198 8.73102 8.27426 7.84321C8.55177 6.3253 9.93926 5.07067 11.7669 5.17227C13.2673 5.25571 14.6424 6.56696 14.7845 8.10855C14.9509 9.91378 13.7463 11.3807 12.1218 11.715ZM9.70928 8.45745C9.72284 9.44154 10.5533 10.2861 11.5039 10.2548C12.5734 10.2196 13.2971 9.42816 13.2979 8.4391C13.2987 7.45259 12.4567 6.64998 11.4865 6.66203C10.5273 6.6739 9.69626 7.51339 9.70928 8.45745Z" fill="black"/>
<path d="M18.9361 11.7152C17.1119 11.3277 16.0363 9.7752 16.2275 8.07218C16.4053 6.48906 17.7817 5.23618 19.2981 5.16987C21.0161 5.09473 22.519 6.28366 22.7604 8.01466C22.979 9.58241 22.0392 11.2828 20.1 11.7152C20.5245 11.7152 20.9405 11.7119 21.3563 11.7159C22.3333 11.7253 23.1333 12.5202 23.1458 13.4923C23.1492 13.7572 23.1511 14.0221 23.1453 14.2869C23.136 14.7106 22.8244 15.0146 22.407 15.0154C21.9949 15.0163 21.674 14.7056 21.6635 14.29C21.6581 14.0783 21.6653 13.8661 21.6606 13.6543C21.6537 13.3442 21.5224 13.203 21.2181 13.202C20.0678 13.198 18.9174 13.1978 17.7671 13.2024C17.4756 13.2036 17.3435 13.3461 17.3358 13.6422C17.33 13.8615 17.3387 14.0813 17.3321 14.3005C17.3193 14.7196 17.0007 15.0195 16.5803 15.0154C16.1801 15.0114 15.853 14.7022 15.8533 14.299C15.8536 13.9069 15.8036 13.5112 15.8945 13.1228C16.0874 12.2982 16.8064 11.7224 17.6503 11.7156C18.0589 11.7124 18.4677 11.7152 18.9361 11.7152ZM17.6999 8.45118C17.7042 9.42982 18.5311 10.2657 19.4878 10.2587C20.4777 10.2513 21.3105 9.41613 21.2946 8.44658C21.2786 7.46691 20.4593 6.65969 19.4841 6.66266C18.53 6.66556 17.6957 7.50191 17.6999 8.45118Z" fill="black"/>
<path d="M14.8941 22.252C13.2073 21.8971 12.0399 20.3997 12.2285 18.6189C12.3972 17.0256 13.7924 15.7637 15.3368 15.706C16.9979 15.6439 18.5403 16.7984 18.767 18.5876C18.9811 20.2779 17.902 21.8649 16.0679 22.2524C16.5345 22.2524 16.9539 22.2484 17.3731 22.2532C18.3344 22.2639 19.1349 23.0618 19.1485 24.0207C19.1524 24.2932 19.1549 24.5658 19.1476 24.8381C19.1362 25.2571 18.8161 25.5568 18.3956 25.5525C17.9955 25.5483 17.678 25.2391 17.6667 24.8354C17.6603 24.6085 17.6705 24.3811 17.662 24.1543C17.6519 23.885 17.5187 23.7418 17.2519 23.7405C16.0864 23.7348 14.9208 23.7348 13.7553 23.7403C13.4782 23.7415 13.3472 23.8869 13.3389 24.1713C13.3325 24.3906 13.3412 24.6103 13.3352 24.8296C13.3239 25.2512 13.0096 25.5537 12.591 25.5524C12.1798 25.5511 11.8543 25.239 11.8555 24.8211C11.8565 24.4439 11.8083 24.0632 11.8917 23.6896C12.0823 22.8359 12.7983 22.2583 13.6683 22.2524C14.0767 22.2497 14.4854 22.252 14.8941 22.252ZM15.5218 17.2003C14.5758 17.2196 13.7427 17.8915 13.7122 18.9535C13.6838 19.9431 14.4118 20.7571 15.4558 20.7858C16.4334 20.8126 17.2652 20.0972 17.2883 19.0184C17.3088 18.0658 16.6045 17.2616 15.5218 17.2003Z" fill="black"/>
<path d="M11.5047 16.1049C11.0844 16.1058 10.7589 15.7794 10.7605 15.3586C10.7621 14.931 11.0803 14.6185 11.5106 14.6216C11.9243 14.6246 12.2409 14.9415 12.2438 15.3553C12.2467 15.7832 11.9304 16.104 11.5047 16.1049Z" fill="black"/>
</svg>
