<svg width="31" height="31" viewBox="0 0 31 31" fill="none" xmlns="http://www.w3.org/2000/svg">
<path d="M25.8238 15.545C25.6819 15.8479 25.4736 16.0703 25.114 16.0845C24.6502 16.1034 24.3 15.7769 24.3 15.3084C24.2952 13.9312 24.3 12.5493 24.3 11.1721C24.3 10.6516 24.1533 10.1925 23.7321 9.85176C23.4387 9.61514 23.0979 9.52995 22.7335 9.51576C22.4874 9.50629 22.2413 9.51576 21.9952 9.51102C21.8722 9.50629 21.8296 9.55835 21.8296 9.67666C21.8343 9.86596 21.8343 10.0553 21.8296 10.2446C21.8249 10.6942 21.4983 11.0254 21.0582 11.0207C20.6275 11.0207 20.301 10.6942 20.2963 10.2493C20.2915 10.0553 20.2915 9.8565 20.2963 9.66246C20.301 9.54888 20.2584 9.50629 20.1401 9.50629C19.1084 9.51102 18.0767 9.51102 17.0403 9.50629C16.9125 9.50629 16.8747 9.55835 16.8794 9.67666C16.8841 9.88016 16.8841 10.0789 16.8794 10.2824C16.8699 10.7036 16.5292 11.0254 16.1032 11.0207C15.6915 11.0207 15.3555 10.6989 15.3413 10.2872C15.3366 10.0789 15.3366 9.87069 15.3413 9.66246C15.346 9.54888 15.2987 9.50629 15.1851 9.50629C14.1629 9.51102 13.1454 9.51102 12.1232 9.50629C11.9954 9.50629 11.9576 9.55835 11.9623 9.67666C11.967 9.88016 11.967 10.0789 11.9623 10.2824C11.9528 10.7036 11.6121 11.0207 11.1862 11.0207C10.7744 11.016 10.4384 10.6989 10.429 10.2872C10.4242 10.0837 10.4242 9.88489 10.429 9.68139C10.4337 9.56781 10.4006 9.50629 10.2728 9.51102C9.92731 9.52049 9.58184 9.50156 9.23636 9.54888C8.6448 9.62934 8.09582 10.202 8.02957 10.7935C8.00591 11.0207 7.99644 11.2431 7.99644 11.4703C7.99644 15.1853 7.99644 18.9003 7.99644 22.6154C7.99644 23.1407 8.13842 23.6092 8.56434 23.9547C8.88616 24.215 9.26002 24.2954 9.65756 24.2954C11.5222 24.3001 13.3868 24.2954 15.2514 24.2954C15.753 24.2954 16.0985 24.674 16.0417 25.1662C16.0039 25.4927 15.7862 25.6868 15.507 25.8193C13.3679 25.8193 11.224 25.8193 9.08492 25.8193C9.06599 25.8146 9.05179 25.8004 9.03286 25.8004C7.57998 25.5874 6.44891 24.2718 6.45837 22.7242C6.48203 18.8436 6.46784 14.9676 6.46784 11.087C6.46784 10.8929 6.4773 10.6989 6.5057 10.5049C6.68553 9.2744 7.76928 8.19065 8.995 8.01081C9.39253 7.95402 9.78533 7.98242 10.1829 7.97295C10.4384 7.96822 10.4384 7.97295 10.4384 7.70793C10.4384 7.54229 10.4384 7.38139 10.4384 7.21575C10.4479 6.78036 10.7792 6.45855 11.2146 6.45855C11.6357 6.45855 11.967 6.78509 11.9765 7.21102C11.9812 7.41452 11.9812 7.61328 11.9765 7.81678C11.9718 7.93036 12.0191 7.97295 12.1327 7.97295C13.1549 7.96822 14.1724 7.96822 15.1946 7.97295C15.3224 7.97295 15.3602 7.9209 15.3555 7.80258C15.3508 7.60855 15.3508 7.41452 15.3555 7.21575C15.365 6.78982 15.6915 6.46328 16.1127 6.45855C16.5481 6.45381 16.8841 6.78036 16.8888 7.21102C16.8936 7.40505 16.8936 7.60382 16.8888 7.79785C16.8841 7.91143 16.9172 7.97295 17.045 7.97295C18.0767 7.96822 19.1084 7.96822 20.1448 7.97295C20.2726 7.97295 20.3057 7.91616 20.3057 7.80258C20.301 7.59908 20.301 7.40032 20.3057 7.19682C20.3152 6.78509 20.6512 6.46328 21.0629 6.46328C21.4889 6.45855 21.8296 6.78036 21.8391 7.20155C21.8438 7.39559 21.8485 7.59435 21.8391 7.78839C21.8296 7.94456 21.8911 7.98242 22.0378 7.97769C22.3123 7.96822 22.5915 7.97295 22.8708 7.97769C23.628 7.98715 24.2858 8.2569 24.8442 8.75382C25.3979 9.246 25.7055 9.87069 25.8333 10.5948C25.8238 12.2464 25.8238 13.8933 25.8238 15.545Z" fill="black"/>
<path d="M20.7227 25.8242C20.1737 25.7296 19.6389 25.5971 19.1467 25.3273C17.7648 24.5748 16.9177 23.4296 16.7142 21.8726C16.3924 19.4495 17.9163 17.301 20.2967 16.7614C22.6299 16.2314 25.1002 17.7411 25.6823 20.06C25.7391 20.2777 25.777 20.5001 25.8243 20.7226C25.8243 21.0775 25.8243 21.4277 25.8243 21.7827C25.8148 21.83 25.8006 21.882 25.7912 21.9294C25.5167 23.5006 24.6743 24.6506 23.2546 25.3794C22.7908 25.616 22.2891 25.7343 21.778 25.8242C21.4278 25.8242 21.0776 25.8242 20.7227 25.8242ZM24.2957 21.2573C24.2626 19.5584 22.9611 18.2191 21.2527 18.2191C19.5774 18.2191 18.2286 19.5205 18.2192 21.2431C18.205 22.9043 19.5017 24.2814 21.248 24.2909C22.9233 24.2956 24.2578 22.9847 24.2957 21.2573Z" fill="black"/>
<path d="M11.9716 14.4187C11.9716 14.8446 11.6308 15.1806 11.2002 15.1806C10.7648 15.1806 10.4288 14.8399 10.4335 14.395C10.4383 13.9691 10.779 13.6426 11.2144 13.6426C11.6403 13.6473 11.9716 13.9881 11.9716 14.4187Z" fill="black"/>
<path d="M15.2557 14.4186C15.251 14.8445 14.915 15.1805 14.4843 15.1758C14.0489 15.1758 13.7129 14.8303 13.7224 14.3902C13.7271 13.9642 14.0678 13.6377 14.5032 13.6377C14.9292 13.6472 15.2604 13.9879 15.2557 14.4186Z" fill="black"/>
<path d="M18.546 14.4235C18.5413 14.8494 18.2053 15.1807 17.7699 15.1807C17.3345 15.1807 17.0032 14.8352 17.0079 14.3904C17.0127 13.9644 17.3581 13.6379 17.7935 13.6426C18.2194 13.6474 18.5507 13.9881 18.546 14.4235Z" fill="black"/>
<path d="M21.8338 14.4235C21.8291 14.8494 21.4884 15.1807 21.0577 15.1807C20.6223 15.176 20.291 14.8352 20.2958 14.3904C20.3005 13.9644 20.646 13.6379 21.0814 13.6426C21.5073 13.6474 21.8338 13.9928 21.8338 14.4235Z" fill="black"/>
<path d="M11.1954 18.4698C10.7647 18.4698 10.4335 18.129 10.4335 17.6984C10.4335 17.263 10.7742 16.927 11.2191 16.9317C11.645 16.9364 11.9715 17.2772 11.9715 17.7126C11.9668 18.1385 11.6261 18.4698 11.1954 18.4698Z" fill="black"/>
<path d="M15.2558 17.7078C15.2558 18.1385 14.9151 18.4698 14.4844 18.4698C14.049 18.4698 13.713 18.129 13.7178 17.6842C13.7225 17.2582 14.0632 16.927 14.4986 16.9317C14.9293 16.9364 15.2606 17.2724 15.2558 17.7078Z" fill="black"/>
<path d="M10.4335 20.9732C10.4383 20.5473 10.779 20.216 11.2097 20.2208C11.645 20.2255 11.9763 20.571 11.9669 21.0111C11.9574 21.437 11.6167 21.7588 11.1813 21.7541C10.7553 21.7494 10.4288 21.4039 10.4335 20.9732Z" fill="black"/>
<path d="M13.7222 20.9732C13.727 20.5473 14.0677 20.216 14.4984 20.2208C14.9337 20.2255 15.265 20.571 15.2556 21.0111C15.2461 21.437 14.9053 21.7588 14.47 21.7541C14.044 21.7494 13.7175 21.4086 13.7222 20.9732Z" fill="black"/>
<path d="M20.485 20.4717C20.485 20.2066 20.4802 19.9416 20.485 19.6813C20.4944 19.2601 20.8257 18.9336 21.2516 18.9336C21.6728 18.9336 22.0088 19.2554 22.023 19.6766C22.0278 19.8754 22.0325 20.0789 22.023 20.2824C22.0136 20.4338 22.0656 20.5001 22.2265 20.4906C22.3969 20.4764 22.5625 20.4906 22.7187 20.5758C23.0263 20.7461 23.1872 21.1058 23.102 21.4418C23.0168 21.7778 22.7234 22.0192 22.378 22.0239C21.9946 22.0287 21.6113 22.0287 21.228 22.0239C20.821 22.0192 20.4991 21.6927 20.4897 21.2904C20.4802 21.0159 20.485 20.7414 20.485 20.4717Z" fill="black"/>
</svg>
