<svg width="21" height="21" viewBox="0 0 21 21" fill="none" xmlns="http://www.w3.org/2000/svg">
<path d="M17.8077 2.46167H3.19231C1.98153 2.46167 1 3.4432 1 4.65398V17.8078C1 19.0186 1.98153 20.0001 3.19231 20.0001H17.8077C19.0185 20.0001 20 19.0186 20 17.8078V4.65398C20 3.4432 19.0185 2.46167 17.8077 2.46167Z" stroke="black" stroke-width="1.5" stroke-linejoin="round"/>
<path d="M12.3271 10.4999C12.9325 10.4999 13.4233 10.0092 13.4233 9.40377C13.4233 8.79838 12.9325 8.30762 12.3271 8.30762C11.7217 8.30762 11.231 8.79838 11.231 9.40377C11.231 10.0092 11.7217 10.4999 12.3271 10.4999Z" fill="black"/>
<path d="M15.9809 10.4999C16.5863 10.4999 17.0771 10.0092 17.0771 9.40377C17.0771 8.79838 16.5863 8.30762 15.9809 8.30762C15.3755 8.30762 14.8848 8.79838 14.8848 9.40377C14.8848 10.0092 15.3755 10.4999 15.9809 10.4999Z" fill="black"/>
<path d="M12.3271 14.154C12.9325 14.154 13.4233 13.6632 13.4233 13.0578C13.4233 12.4524 12.9325 11.9617 12.3271 11.9617C11.7217 11.9617 11.231 12.4524 11.231 13.0578C11.231 13.6632 11.7217 14.154 12.3271 14.154Z" fill="black"/>
<path d="M15.9809 14.154C16.5863 14.154 17.0771 13.6632 17.0771 13.0578C17.0771 12.4524 16.5863 11.9617 15.9809 11.9617C15.3755 11.9617 14.8848 12.4524 14.8848 13.0578C14.8848 13.6632 15.3755 14.154 15.9809 14.154Z" fill="black"/>
<path d="M5.01901 14.154C5.62439 14.154 6.11516 13.6632 6.11516 13.0578C6.11516 12.4524 5.62439 11.9617 5.01901 11.9617C4.41362 11.9617 3.92285 12.4524 3.92285 13.0578C3.92285 13.6632 4.41362 14.154 5.01901 14.154Z" fill="black"/>
<path d="M8.6733 14.154C9.27869 14.154 9.76946 13.6632 9.76946 13.0578C9.76946 12.4524 9.27869 11.9617 8.6733 11.9617C8.06791 11.9617 7.57715 12.4524 7.57715 13.0578C7.57715 13.6632 8.06791 14.154 8.6733 14.154Z" fill="black"/>
<path d="M5.01901 17.8075C5.62439 17.8075 6.11516 17.3168 6.11516 16.7114C6.11516 16.106 5.62439 15.6152 5.01901 15.6152C4.41362 15.6152 3.92285 16.106 3.92285 16.7114C3.92285 17.3168 4.41362 17.8075 5.01901 17.8075Z" fill="black"/>
<path d="M8.6733 17.8075C9.27869 17.8075 9.76946 17.3168 9.76946 16.7114C9.76946 16.106 9.27869 15.6152 8.6733 15.6152C8.06791 15.6152 7.57715 16.106 7.57715 16.7114C7.57715 17.3168 8.06791 17.8075 8.6733 17.8075Z" fill="black"/>
<path d="M12.3271 17.8075C12.9325 17.8075 13.4233 17.3168 13.4233 16.7114C13.4233 16.106 12.9325 15.6152 12.3271 15.6152C11.7217 15.6152 11.231 16.106 11.231 16.7114C11.231 17.3168 11.7217 17.8075 12.3271 17.8075Z" fill="black"/>
<path d="M4.65381 1V2.46154M16.3461 1V2.46154" stroke="black" stroke-width="1.5" stroke-linecap="round" stroke-linejoin="round"/>
<path d="M20 6.11523H1" stroke="black" stroke-width="1.5" stroke-linejoin="round"/>
</svg>
