<svg width="24" height="24" viewBox="0 0 24 24" fill="none" xmlns="http://www.w3.org/2000/svg">
<path d="M11.2276 0.250977L13.5469 0.256851C14.461 0.367292 15.2622 0.797306 15.9225 1.5234C16.4618 2.11555 16.745 2.80404 16.7614 3.55363H23.194C23.4088 3.55487 23.6143 3.64131 23.7655 3.79397C23.9166 3.94663 24.0009 4.15303 24 4.36783C24.0005 4.47414 23.98 4.5795 23.9397 4.67789C23.8995 4.77628 23.8402 4.86578 23.7654 4.94128C23.6905 5.01677 23.6016 5.07679 23.5035 5.1179C23.4055 5.15901 23.3003 5.1804 23.194 5.18087L21.0369 5.17969V18.8403C21.0369 21.8281 19.9219 23.749 17.464 23.749H6.86875C4.41085 23.749 3.31349 21.8386 3.31349 18.8403V5.17969H1.30794C1.09365 5.17876 0.888475 5.0929 0.737391 4.94093C0.586307 4.78897 0.501641 4.5833 0.501954 4.36901C0.501954 3.91902 0.862649 3.55598 1.30794 3.55598H7.73465C7.7511 2.95208 7.9755 2.33995 8.38555 1.73488C8.99649 0.832553 9.95051 0.337919 11.2276 0.250977ZM19.4249 5.17969H4.92428V18.8403C4.92428 21.0585 5.53523 22.123 6.86875 22.123H17.464C18.8022 22.123 19.4261 21.0491 19.4261 18.8403L19.4249 5.17969ZM8.3926 7.69986C8.83671 7.69986 9.1974 8.06407 9.1974 8.51289V17.9708C9.19787 18.0772 9.17739 18.1825 9.13713 18.2809C9.09688 18.3793 9.03764 18.4688 8.9628 18.5443C8.88796 18.6198 8.79898 18.6798 8.70094 18.7209C8.6029 18.762 8.49773 18.7834 8.39142 18.7839C8.17693 18.7826 7.9717 18.6963 7.8208 18.5439C7.6699 18.3914 7.58568 18.1853 7.58661 17.9708V8.51289C7.58661 8.06407 7.94848 7.69986 8.3926 7.69986ZM11.5942 7.69986C12.0407 7.69986 12.4002 8.06407 12.4002 8.51289V17.9708C12.4006 18.0772 12.3802 18.1825 12.3399 18.2809C12.2997 18.3793 12.2404 18.4688 12.1656 18.5443C12.0907 18.6198 12.0018 18.6798 11.9037 18.7209C11.8057 18.762 11.7005 18.7834 11.5942 18.7839C11.3797 18.7826 11.1745 18.6963 11.0236 18.5439C10.8727 18.3914 10.7885 18.1853 10.7894 17.9708V8.51289C10.7894 8.06407 11.1501 7.69986 11.5942 7.69986ZM14.7993 7.69986C15.2434 7.69986 15.6041 8.06407 15.6041 8.51289V17.9708C15.6051 18.1853 15.5209 18.3914 15.37 18.5439C15.2191 18.6963 15.0138 18.7826 14.7993 18.7839C14.693 18.7834 14.5879 18.762 14.4898 18.7209C14.3918 18.6798 14.3028 18.6198 14.228 18.5443C14.1531 18.4688 14.0939 18.3793 14.0536 18.2809C14.0134 18.1825 13.9929 18.0772 13.9934 17.9708V8.51289C13.9927 8.29829 14.0772 8.09219 14.2283 7.93979C14.3794 7.78738 14.5847 7.7011 14.7993 7.69986ZM11.2829 1.87469C10.5286 1.92756 10.0316 2.18487 9.71553 2.65248C9.4829 2.99437 9.36659 3.29045 9.34779 3.5548L15.1495 3.55363C15.133 3.21173 14.9979 2.91095 14.7359 2.6231C14.3294 2.17664 13.8782 1.93461 13.4517 1.87704L11.2829 1.87469Z" fill="black"/>
</svg>
