<svg width="17" height="19" viewBox="0 0 17 19" fill="none" xmlns="http://www.w3.org/2000/svg">
<path d="M15.3756 9.97517V9.01838L16.5763 7.9678C16.7976 7.77272 16.9429 7.50568 16.9863 7.21387C17.0298 6.92207 16.9688 6.62428 16.8139 6.37315L15.3381 3.87175C15.2284 3.6818 15.0707 3.52404 14.8809 3.41428C14.691 3.30452 14.4756 3.24662 14.2562 3.2464C14.1203 3.24535 13.9851 3.26648 13.856 3.30893L12.3364 3.82172C12.0744 3.64681 11.8007 3.4901 11.5172 3.35271L11.1983 1.77682C11.1411 1.48891 10.9845 1.23029 10.7558 1.04622C10.5272 0.86216 10.241 0.764381 9.94756 0.770005H7.02092C6.72744 0.764381 6.44133 0.86216 6.21268 1.04622C5.98403 1.23029 5.8274 1.48891 5.77022 1.77682L5.45129 3.35271C5.1661 3.49069 4.89035 3.64737 4.62583 3.82172L3.13749 3.28392C3.00698 3.24991 2.87182 3.23724 2.73727 3.2464C2.51794 3.24662 2.30253 3.30452 2.11264 3.41428C1.92276 3.52404 1.76507 3.6818 1.65541 3.87175L0.17958 6.37315C0.0336149 6.62391 -0.0206252 6.91762 0.0261496 7.20397C0.0729243 7.49032 0.217803 7.7515 0.435974 7.94278L1.61789 9.02464V9.98143L0.435974 11.032C0.211641 11.2246 0.062799 11.4905 0.0158622 11.7824C-0.0310747 12.0743 0.0269291 12.3734 0.17958 12.6267L1.65541 15.1281C1.76507 15.318 1.92276 15.4758 2.11264 15.5855C2.30253 15.6953 2.51794 15.7532 2.73727 15.7534C2.87319 15.7545 3.00837 15.7333 3.13749 15.6909L4.65709 15.1781C4.9191 15.353 5.19282 15.5097 5.4763 15.6471L5.79523 17.223C5.85242 17.5109 6.00905 17.7695 6.2377 17.9536C6.46635 18.1377 6.75246 18.2354 7.04594 18.2298H9.99759C10.2911 18.2354 10.5772 18.1377 10.8058 17.9536C11.0345 17.7695 11.1911 17.5109 11.2483 17.223L11.5672 15.6471C11.8524 15.5091 12.1282 15.3524 12.3927 15.1781L13.906 15.6909C14.0352 15.7333 14.1703 15.7545 14.3063 15.7534C14.5256 15.7532 14.741 15.6953 14.9309 15.5855C15.1208 15.4758 15.2785 15.318 15.3881 15.1281L16.8139 12.6267C16.9599 12.3759 17.0141 12.0822 16.9673 11.7958C16.9206 11.5095 16.7757 11.2483 16.5575 11.057L15.3756 9.97517ZM14.2562 14.5027L12.1113 13.7773C11.6089 14.2022 11.0351 14.5346 10.4166 14.7591L9.97258 17.0041H7.02092L6.57692 14.7841C5.96329 14.5533 5.3926 14.2215 4.88847 13.8023L2.73727 14.5027L1.26144 12.0013L2.96239 10.5005C2.84676 9.85314 2.84676 9.19045 2.96239 8.54312L1.26144 6.9985L2.73727 4.4971L4.88222 5.2225C5.38464 4.79763 5.95843 4.46522 6.57692 4.2407L7.02092 1.99569H9.97258L10.4166 4.21569C11.0302 4.44651 11.6009 4.77836 12.105 5.19749L14.2562 4.4971L15.7321 6.9985L14.0311 8.49934C14.1467 9.14667 14.1467 9.80937 14.0311 10.4567L15.7321 12.0013L14.2562 14.5027Z" fill="white"/>
<path d="M8.49674 13.252C7.75464 13.252 7.02921 13.032 6.41218 12.6197C5.79515 12.2074 5.31423 11.6214 5.03024 10.9358C4.74625 10.2502 4.67195 9.49575 4.81673 8.76791C4.9615 8.04007 5.31886 7.37151 5.8436 6.84677C6.36834 6.32203 7.0369 5.96468 7.76474 5.8199C8.49257 5.67512 9.247 5.74943 9.93261 6.03342C10.6182 6.3174 11.2042 6.79832 11.6165 7.41535C12.0288 8.03238 12.2488 8.75781 12.2488 9.49991C12.2539 9.99404 12.1602 10.4842 11.9735 10.9417C11.7867 11.3992 11.5105 11.8148 11.1611 12.1642C10.8116 12.5137 10.396 12.7898 9.93852 12.9766C9.48103 13.1634 8.99086 13.257 8.49674 13.252ZM8.49674 6.99851C8.16614 6.99081 7.83742 7.05024 7.53045 7.17322C7.22349 7.2962 6.94466 7.48017 6.71083 7.714C6.477 7.94783 6.29303 8.22666 6.17005 8.53363C6.04707 8.84059 5.98763 9.16932 5.99533 9.49991C5.98763 9.83051 6.04707 10.1592 6.17005 10.4662C6.29303 10.7732 6.477 11.052 6.71083 11.2858C6.94466 11.5196 7.22349 11.7036 7.53045 11.8266C7.83742 11.9496 8.16614 12.009 8.49674 12.0013C8.82733 12.009 9.15605 11.9496 9.46302 11.8266C9.76998 11.7036 10.0488 11.5196 10.2826 11.2858C10.5165 11.052 10.7004 10.7732 10.8234 10.4662C10.9464 10.1592 11.0058 9.83051 10.9981 9.49991C11.0058 9.16932 10.9464 8.84059 10.8234 8.53363C10.7004 8.22666 10.5165 7.94783 10.2826 7.714C10.0488 7.48017 9.76998 7.2962 9.46302 7.17322C9.15605 7.05024 8.82733 6.99081 8.49674 6.99851Z" fill="white"/>
</svg>
