<svg width="28" height="22" viewBox="0 0 28 22" fill="none" xmlns="http://www.w3.org/2000/svg">
<path d="M25 1.25H1C0.734784 1.25 0.48043 1.35536 0.292893 1.54289C0.105357 1.73043 0 1.98478 0 2.25V19.25C0 19.7804 0.210714 20.2891 0.585786 20.6642C0.960859 21.0393 1.46957 21.25 2 21.25H24C24.5304 21.25 25.0391 21.0393 25.4142 20.6642C25.7893 20.2891 26 19.7804 26 19.25V2.25C26 1.98478 25.8946 1.73043 25.7071 1.54289C25.5196 1.35536 25.2652 1.25 25 1.25ZM22.4287 3.25L13 11.8937L3.57125 3.25H22.4287ZM24 19.25H2V4.52375L12.3237 13.9875C12.5082 14.1569 12.7496 14.2508 13 14.2508C13.2504 14.2508 13.4918 14.1569 13.6763 13.9875L24 4.52375V19.25Z" fill="black"/>
<circle cx="24" cy="4" r="4" fill="#FF862F"/>
</svg>
