<svg width="24" height="25" viewBox="0 0 24 25" fill="none" xmlns="http://www.w3.org/2000/svg">
<path d="M10 23.625C10 23.8902 9.89464 24.1446 9.70711 24.3321C9.51957 24.5196 9.26522 24.625 9 24.625H2C1.46957 24.625 0.960859 24.4143 0.585786 24.0392C0.210714 23.6641 0 23.1554 0 22.625V2.625C0 2.09457 0.210714 1.58586 0.585786 1.21079C0.960859 0.835714 1.46957 0.625 2 0.625H9C9.26522 0.625 9.51957 0.730357 9.70711 0.917893C9.89464 1.10543 10 1.35978 10 1.625C10 1.89022 9.89464 2.14457 9.70711 2.33211C9.51957 2.51964 9.26522 2.625 9 2.625H2V22.625H9C9.26522 22.625 9.51957 22.7304 9.70711 22.9179C9.89464 23.1054 10 23.3598 10 23.625ZM23.7075 11.9175L18.7075 6.9175C18.5199 6.72986 18.2654 6.62444 18 6.62444C17.7346 6.62444 17.4801 6.72986 17.2925 6.9175C17.1049 7.10514 16.9994 7.35964 16.9994 7.625C16.9994 7.89036 17.1049 8.14486 17.2925 8.3325L20.5863 11.625H9C8.73478 11.625 8.48043 11.7304 8.29289 11.9179C8.10536 12.1054 8 12.3598 8 12.625C8 12.8902 8.10536 13.1446 8.29289 13.3321C8.48043 13.5196 8.73478 13.625 9 13.625H20.5863L17.2925 16.9175C17.1049 17.1051 16.9994 17.3596 16.9994 17.625C16.9994 17.8904 17.1049 18.1449 17.2925 18.3325C17.4801 18.5201 17.7346 18.6256 18 18.6256C18.2654 18.6256 18.5199 18.5201 18.7075 18.3325L23.7075 13.3325C23.8005 13.2396 23.8742 13.1293 23.9246 13.0079C23.9749 12.8865 24.0008 12.7564 24.0008 12.625C24.0008 12.4936 23.9749 12.3635 23.9246 12.2421C23.8742 12.1207 23.8005 12.0104 23.7075 11.9175Z" fill="black"/>
</svg>
